# xmcd CD database file
#
# Track frame offsets:
#	150
#	16740
#	30672
#	46840
#	61035
#	76997
#	89655
#	104017
#	122420
#	136485
#	149490
#	164605
#	180790
#	193250
#	206972
#	219732
#	236495
#	252025
#	266957
#	281420
#
# Disc length: 3954 seconds
#
# Revision: 3
# Processed by: cddbd v1.5.2PL0 Copyright (c) Steve Scherf et al.
# Submitted via: CDex 1.70beta2
#
DISCID=250f7014
DTITLE=Country Stark - Country Stark
DYEAR=1999
DGENRE=Country
TTITLE0=Jonny Hill - Tierra Libre
TTITLE1=Linda Feller - Du weist was Frauen lieben
TTITLE2=Tom Astor - Junger Adler
TTITLE3=Iris McCollins - Liebeskrank
TTITLE4=Truck Stop - Ich möcht so gern Dave Dudley hör'n
TTITLE5=Country Rose and Ralf Paulsen - Hallo Country Rose
TTITLE6=Gunter Gabriel - Den Rocker kriegst du nicht mehr aus mir raus
TTITLE7=Larry Schuba and Western Union - Ich mag die Sonne,ich mag den Mond
TTITLE8=Dagmar - Wir sitzen alle im selben Boot
TTITLE9=Dickey Lee - Die Tür steht immer offen
TTITLE10=Tom Astor - Und ich bin dein Freund
TTITLE11=Linda Feller - Könnt ich nocheinmal leben
TTITLE12=Truck Stop  - Der wilde wilde Westen
TTITLE13=Joe Hodgkins and Boss Band - Portland daheim
TTITLE14=Greyhounds - Typen mit dem Cowboyhut
TTITLE15=Hanna and Daana - Küsse wie Feuer
TTITLE16=Mike Hermann and Booze Company - Zusammen mit dir
TTITLE17=Jonny Hill - Lass mich sein wie ich bin
TTITLE18=Dagmar - Ich bin für dich da
TTITLE19=Gunter Gabriel - Truck Stop Tom Astor und ich
EXTD=YEAR: 1999
EXTT0=
EXTT1=
EXTT2=
EXTT3=
EXTT4=
EXTT5=
EXTT6=
EXTT7=
EXTT8=
EXTT9=
EXTT10=
EXTT11=
EXTT12=
EXTT13=
EXTT14=
EXTT15=
EXTT16=
EXTT17=
EXTT18=
EXTT19=
PLAYORDER=
